<?xml version="1.0" standalone="no"?>
<!DOCTYPE svg PUBLIC "-//W3C//DTD SVG 20010904//EN"
 "http://www.w3.org/TR/2001/REC-SVG-20010904/DTD/svg10.dtd">
<svg version="1.0" xmlns="http://www.w3.org/2000/svg"
 width="2945.000000pt" height="1289.000000pt" viewBox="0 0 2945.000000 1289.000000"
 preserveAspectRatio="xMidYMid meet">

<g transform="translate(0.000000,1289.000000) scale(0.100000,-0.100000)"
fill="#000000" stroke="none">
<path d="M5290 11344 c-456 -31 -731 -72 -1087 -159 -679 -167 -1326 -477
-1897 -908 -442 -333 -867 -760 -1206 -1212 -650 -866 -1001 -1830 -1070
-2940 -6 -99 -10 -1255 -10 -3042 l0 -2883 1395 0 1395 0 3 2933 2 2932 23
135 c95 580 313 1029 714 1470 244 268 579 513 890 652 233 104 527 185 803
219 152 20 572 17 725 -4 506 -71 940 -258 1340 -577 133 -106 372 -345 475
-475 263 -329 444 -699 529 -1077 66 -293 60 -9 63 -3260 l3 -2948 1375 0
1375 0 2 1208 c2 664 6 1200 10 1192 4 -8 23 -60 43 -115 48 -131 177 -398
259 -533 86 -142 197 -301 303 -431 111 -136 408 -433 544 -544 571 -465 1210
-718 1958 -777 90 -7 1199 -10 3333 -10 l3198 0 3 2932 2 2933 23 135 c95 580
313 1029 714 1470 244 268 579 513 890 652 233 104 527 185 803 219 152 20
572 17 725 -4 506 -71 940 -258 1340 -577 133 -106 372 -345 475 -475 263
-329 444 -699 529 -1077 66 -293 60 -9 63 -3260 l3 -2948 1375 0 1375 0 -3
3013 c-3 3288 1 3057 -58 3447 -138 914 -509 1765 -1091 2505 -164 207 -297
356 -512 570 -475 474 -926 801 -1481 1075 -582 288 -1141 444 -1845 517 -122
12 -261 17 -535 17 -374 1 -493 -6 -790 -44 -916 -117 -1770 -465 -2509 -1023
-442 -333 -867 -760 -1206 -1212 -650 -866 -1001 -1830 -1070 -2940 -5 -88
-10 -448 -11 -800 -1 -352 -4 -631 -6 -620 -3 11 -26 83 -50 160 -106 329
-221 568 -410 854 -361 544 -877 1007 -1431 1284 -461 230 -902 338 -1452 354
-824 24 -1576 -208 -2205 -681 -575 -432 -1028 -1027 -1261 -1656 l-39 -105
-6 655 c-6 686 -11 772 -60 1100 -138 914 -509 1765 -1091 2505 -164 207 -297
356 -512 570 -475 474 -926 801 -1481 1075 -579 286 -1149 446 -1835 515 -147
15 -732 28 -860 19z m9441 -5795 c439 -44 825 -247 1144 -600 387 -428 533
-981 414 -1571 -114 -570 -560 -1079 -1129 -1291 -371 -138 -827 -142 -1223
-10 -382 127 -727 410 -947 777 -298 497 -320 1187 -54 1717 137 275 376 539
646 716 322 211 733 305 1149 262z"/>
</g>
</svg>
